<?xml version="1.0" encoding="utf-8"?>
<!-- Generator: Adobe Illustrator 19.0.0, SVG Export Plug-In . SVG Version: 6.00 Build 0)  -->
<svg version="1.1" id="layer" xmlns="http://www.w3.org/2000/svg" xmlns:xlink="http://www.w3.org/1999/xlink" x="0px" y="0px"
	 viewBox="-153 -46 652 652" style="enable-background:new -153 -46 652 652;" xml:space="preserve">
<path d="M404.6,325.5v-19.4h5c2.2,0,3.2,1.1,3.2,3.3v12.8c0,2.2-1,3.3-3.2,3.3L404.6,325.5z M385.7,290.5v82.6h19v-32.9h4.7l6,32.9
	h18c0-0.7-0.4-1.2-0.5-1.5c-0.1-0.3,0-0.8-0.4-1.4l-0.8-2.9c-0.4-1.3-0.9-3.2-1.6-6l-2.6-10.4c-1.1-4.3-2.6-9.8-4.2-16.4
	c2.3-1,4.2-2.7,5.5-4.9c1.1-1.8,1.8-3.9,1.9-6v-18c0.1-2.4-0.5-4.7-1.6-6.8c-1.1-1.8-2.5-3.4-4.2-4.7c-1.8-1.3-3.9-2.2-6-2.8
	c-2.1-0.5-4.3-0.7-6.5-0.7H385.7z M451,299.5h5.4c0.6,0,1.1,0.3,1.4,0.8c0.4,0.5,0.5,1.1,0.5,1.7c0,0.7-0.2,1.3-0.5,1.9
	c-0.3,0.5-0.9,0.7-1.4,0.7H451V299.5z M451,313.2v-6.5h3.3l3.6,6.5h2.8l-3.9-6.5c1.2-0.1,2.2-0.7,2.9-1.7c0.7-0.9,1.1-2,1.1-3.2
	c0-1.2-0.4-2.3-1.1-3.2c-0.8-1-2-1.5-3.3-1.4h-7.8v16H451z M442.7,305.2c0-6.4,5.2-11.7,11.6-11.7c3.1,0,6,1.2,8.2,3.3
	c4.3,4.7,4.3,12,0,16.7c-4.6,4.4-11.9,4.4-16.5,0C443.8,311.3,442.6,308.3,442.7,305.2 M468,305.2c0.1-3.7-1.3-7.2-4-9.8
	c-5.4-5.3-14.1-5.3-19.5,0c-5.3,5.4-5.3,14.1,0,19.6c5.5,5.2,14,5.2,19.5,0C466.7,312.4,468.1,308.8,468,305.2 M280.8,227.9
	L280.8,227.9v-0.5c-2-12.4,0,0-6.4-35.6c-0.7-4.6-1.7-9.2-3-13.7c0-0.2,0-0.4,0-0.5c-0.2-0.3-0.5-0.4-0.8-0.4c-0.6,0-1,0.4-1.1,1
	l0,0v0.3c0,1.9-1.7,20.1-1.8,21c-0.2,3.2-1,6.3-2.3,9.2c-1.1,1-2.9,2.5-5.1,4.4c-0.8,0.7-1.7,1.4-2.6,2.2c-0.8,0.8-1.9,1.2-3.1,1.2
	c-1.1,0-2.1-0.3-3.1-0.9l-10.3-7.4l0,0l0,0l-8-6c-12.7-9.5-25-20.1-38.8-24.4c-5.9-1.7-12.1-1.7-18,0c-2.5,0.7-4.9,1.7-7.2,2.9
	c-6,3.2-9.7,8.5-14.3,11h-0.7c-4.6-2.5-8.3-7.8-14.3-11c-2.3-1.3-4.7-2.3-7.2-2.9c-5.9-1.7-12.1-1.7-18,0
	c-13.8,4.3-26.1,14.8-38.5,24.4l-8,6h-0.3l0,0l-10.6,7.4c-0.9,0.6-2,0.9-3.1,0.9c-1.1,0-2.2-0.5-3.1-1.2l-2.5-2.2
	c-2.3-1.9-4-3.4-5.1-4.4c-1.3-2.9-2.1-6-2.3-9.2c0-0.9-1.7-19.1-1.9-21v-0.3l0,0c-0.1-0.6-0.5-1-1.1-1c-0.3,0-0.6,0.2-0.8,0.4
	c0,0.2,0,0.4,0,0.5c-1.3,4.5-2.3,9.1-3,13.7c-6.7,35.6-4.5,23.3-6.7,35.6c0,0.2,0,0.4,0,0.5l0,0c0,0.7,0.4,1.4,1.1,1.7
	c10.8,4.8,21.6,9.4,32.5,14l2.6,1.1c1.2,0.3,2.4,0.3,3.5,0c3.4-0.6,6.8-1.6,10.3-2.2c8.6-2.3,17.4-3.8,26.3-4.3
	c6.9,0,13.8,0,20.7-0.4c0.9-0.1,1.8-0.2,2.7-0.5l25.6-11c0.3-0.1,0.6-0.1,0.8,0l0,0h0.9l25.5,11c0.9,0.3,1.8,0.4,2.7,0.5
	c6,0,12,0.5,18,0.5h4.4c8.1,0.8,16.1,2.2,24,4.3c3.5,0.6,6.8,1.6,10.3,2.2c0.7,0.1,1.4,0.1,2,0c0.7,0.2,1.5,0.2,2.2,0
	c12-5,24-10,36-15.2C280.6,229.3,280.9,228.6,280.8,227.9z M94.3,373.1h38.2v-15.7h-18.8v-18.8h12.5v-15.7h-12.5V305h18.8v-14.6
	H94.3V373.1z M323.8,373.1H362v-15.7h-18.8v-18.8h12.4v-15.7h-12.4V305H362v-14.6h-38.2V373.1z M291.6,294c-1.8-1.3-3.8-2.2-6-2.8
	c-2.2-0.5-4.5-0.7-6.8-0.7h-26.3v82.6h26.3c2.3,0,4.6-0.3,6.8-0.9c2.2-0.5,4.2-1.5,6-2.8c1.8-1.2,3.2-2.8,4.3-4.7
	c1.1-2.1,1.6-4.4,1.6-6.8v-17.3c0-2-0.6-3.9-1.9-5.5c-1.4-1.9-3.4-3.3-5.6-4.1c2.2-0.9,4.1-2.3,5.6-4.2c1.2-1.6,1.9-3.5,1.9-5.5
	v-15.9c0-2.4-0.5-4.7-1.6-6.8C294.8,296.8,293.3,295.2,291.6,294z M279.6,354c0.2,1.6-0.9,3.1-2.5,3.4c-0.3,0-0.6,0-0.8,0h-4.7
	v-18.2h4.4c0.9-0.1,1.7,0.2,2.5,0.7c0.6,0.6,0.9,1.6,0.8,2.5L279.6,354z M279.6,320.5c0.2,1.6-0.9,3-2.5,3.2c-0.3,0-0.6,0-0.8,0
	h-4.7v-18h4.4c1.6-0.3,3,0.8,3.3,2.4c0,0.3,0,0.6,0,0.9L279.6,320.5z M191.9,328.1l-8.2-37.7h-26.9v82.7h17v-52.7l10.3,52.7h11.9
	l12-52.6v52.6h19v-82.7h-27.3L191.9,328.1z M-97,328.1l-8.2-37.7H-132v82.7h17v-52.7l10.3,52.7h11.9l12-52.6v52.6h19v-82.7H-89
	L-97,328.1z M-1,294.9c-2.2-1.9-4.8-3.3-7.5-4.4c-3-1.2-6.2-1.7-9.5-1.7c-3.2,0-6.4,0.5-9.4,1.7c-2.8,1-5.3,2.5-7.6,4.4
	c-2.1,1.6-3.8,3.7-5,6c-1.1,1.9-1.8,4.1-1.8,6.4v49.3c0.1,2.2,0.7,4.4,1.8,6.4c1.3,2.3,3,4.3,5,6c2.3,1.8,4.8,3.3,7.6,4.3
	c3,1,6.2,1.5,9.4,1.3c3.2,0,6.4-0.5,9.4-1.7c2.7-1,5.3-2.5,7.6-4.3c2-1.7,3.8-3.7,5-6c1.1-1.8,1.8-3.9,2-6v-49.2
	c0-2.2-0.7-4.4-1.8-6.4C2.9,298.6,1.1,296.6-1,294.9z M-14,354.9c0.1,1-0.4,2-1.1,2.6c-0.8,0.6-1.8,1-2.8,1c-1,0.1-2-0.3-2.8-1
	c-0.8-0.6-1.3-1.6-1.2-2.6v-46.4c0-1,0.4-2,1.2-2.6c0.8-0.6,1.8-0.9,2.8-0.9c1,0,2,0.3,2.8,0.9c0.8,0.6,1.2,1.6,1.1,2.6V354.9z
	 M48.8,336.6l-5-46.2H23.2l16.1,82.7h18.2l16.1-82.7h-19L48.8,336.6z"/>
</svg>
