<svg width="98" height="20" fill="none" xmlns="http://www.w3.org/2000/svg"><path fill-rule="evenodd" clip-rule="evenodd" d="M82.708 12.75V7.227l2.54 2.739.688-1.957-3.228-3.222v-.69h2.816V2.163h-2.816V0H80.67v2.163h-3.182v1.934h3.022c-1.122 1.933-2.198 3.682-3.342 5.362l.664 2.44a49.706 49.706 0 002.838-4.511v5.362h2.038zm-18.68-7.664h2.838V2.624h-2.839v2.462zm0 4.396h2.838v-2.6h-2.839v2.6zm4.944 0h2.84v-2.6h-2.84v2.6zm0-4.396h2.84V2.624h-2.84v2.462zm0 10.38h4.968v-1.887h-4.968v-2.187h3.434c.962 0 1.488-.529 1.488-1.495V.737h-11.95v10.655h4.922v2.187h-4.968v1.887h4.968v2.44h-6.112v1.979H74.97v-1.98h-5.998v-2.439zm-7.92-.414l-2.359.414V9.943h2.198V7.894h-2.198v-5.04h2.335V.737h-6.753v2.117h2.358v5.04h-2.22v2.049h2.22v5.891L54 16.318l.23 2.278 6.821-1.404v-2.14zm29.394 2.946c.71 0 1.121-.392 1.19-1.105l.16-1.703 2.107.276c-.046.598-.092 1.15-.207 2.095-.206 1.61-1.144 2.44-2.701 2.44h-7.097c-1.625 0-2.518-.899-2.518-2.533v-3.89h2.198v3.269c0 .736.412 1.151 1.144 1.151h5.724zm4.12-4.258l1.992-.23c.47 1.705.885 3.355 1.294 4.983l.148.586-2.106.323c-.412-1.957-.87-3.867-1.328-5.662zm-17.65 5.685l2.014.23a99.965 99.965 0 001.1-5.892l-2.015-.184a83.575 83.575 0 01-1.1 5.846zm12.433-3.362l.02.047-1.968.438a67.901 67.901 0 00-1.236-3.13l1.854-.346c.473.997.902 1.994 1.33 2.991zm-.85-11.92h5.93V2.44H88.5v1.703zm0 3.245h5.93V5.685H88.5v1.703zm0 3.268h5.93v-1.75H88.5v1.75zm8.059.207V.737H86.416v11.622h8.654c.961 0 1.488-.53 1.488-1.496zm-54.1-1.094L37.683 1H22.952l4.753 8.77h14.753zm-23.29.343c1.082.937 2.838 1.097 4.528 1.097h2.95L31.422 20H19.258c-1.554 0-3.085-.045-4.595-.41-1.531-.389-2.838-1.006-4.077-1.942-2.59-1.872-4.009-4.43-5.496-7.17a729.2 729.2 0 01-3.616-6.67C.983 2.893.491 1.979 0 1.069h13.672c.068.12.563 1.033 1.165 2.143a545.467 545.467 0 002.417 4.434c.518.936 1.013 1.758 1.915 2.466zM33.27 20l-4.775-8.815h14.708L48 20H33.269z" fill="#000"/></svg>