<?xml version="1.0" encoding="utf-8"?>
<!-- Generator: Adobe Illustrator 19.2.1, SVG Export Plug-In . SVG Version: 6.00 Build 0)  -->
<svg version="1.1" id="layer" xmlns="http://www.w3.org/2000/svg" xmlns:xlink="http://www.w3.org/1999/xlink" x="0px" y="0px"
	 viewBox="0 0 652 652" style="enable-background:new 0 0 652 652;" xml:space="preserve">
<style type="text/css">
	.st0{fill:none;stroke:#000000;stroke-width:1.8113;}
	.st1{fill:none;stroke:#000000;stroke-width:0.8132;}
</style>
<g>
	<line class="st0" x1="20.6" y1="338.4" x2="586.2" y2="338.4"/>
	<path d="M23.2,324.9v-1.3c0.9,0,2.2-0.1,3-0.3c1.5-0.3,4.8-2.9,4.8-4.7V269c0-1.7-3.1-5.7-5.2-5.8c-1.1-0.1-2.4-0.1-3.3-0.2v-1.3
		h27.6v1.3c-0.9,0-1.9,0.1-3,0.3c-1.7,0.3-4.7,2.8-4.7,4.8v48.4c0,2.3,1.7,5.2,4.1,6.5c1.2,0.6,2.9,0.7,4.1,0.7v1.3H23.2z"/>
	<path d="M56.4,324.9v-1.3c7.3-0.3,10.9-8.7,10.9-13.2v-41.1c0-1.1-5.5-5.7-7.4-6c-1.3-0.2-2.4-0.4-3.5-0.4v-1.3h18.9l46,48.9v-34.7
		c0-3-5.5-10.4-9.7-12.3c-1.4-0.6-3.7-0.6-5-0.6v-1.3h26.6v1.3c-0.8,0-2.2,0.2-3.5,0.7c-2.6,1.1-7.2,6.6-7.2,11.8v50.9h-1.5
		l-52.6-56.2v39.1c0,5,5.8,14.2,9.6,14.3l4.5,0.1v1.3H56.4z"/>
	<path d="M201.5,261.7c-0.2,2.4-0.3,4.9-0.3,7.2c0,3.3,0.3,6.7,1.2,9.9l-1.5,0.5c-2.1-5.8-14.3-16.1-20.5-16.1c-2.8,0-5.6,3-5.6,5.3
		v48.2c0,5.1,5.1,7.1,9.3,7.1v1.3h-29.8v-1.3c4,0,9.6-2.1,9.6-7V268c0-1.8-3.6-4.9-6.1-4.9c-5.6,0-16.2,10.9-19.2,15.7l-1.4-0.2
		c0.9-5.6,0.9-11.2,0.9-16.9H201.5z"/>
	<path d="M207.6,324.9v-1.3c3.5,0,8.9-3.1,8.9-6.7v-48.5c0-1.6-3.4-5.2-5.4-5.3l-2.2-0.1v-1.3h53.6c0.3,9.5,0,5.8,1.1,16.2h-1.3
		c-3-7.6-15.4-15-23.5-15h-4.6c-2.4,0-3,0.4-4.8,2.1c-1.1,1-2.2,1.7-2.2,3.4v21.8c1.3,0.2,2.6,0.3,3.9,0.3c6.7,0,9.1-0.1,12.5-2.7
		c3.3-2.5,6.4-5.2,6.4-10.2h1.3v28.9h-1.3c0-2.1-0.1-3.9-0.6-5.8c-1.3-5-7.4-8.9-12.6-8.9h-9.6v25.1c0,3,3.4,6.7,8.1,6.7
		c5.4,0,14.6-4.2,17.4-5.7c8.9-4.8,12.7-8.4,15.8-13.2l1.1,0.3c-2.4,6.5-4.2,13.1-5.2,19.9H207.6z"/>
	<path d="M347.6,293.5v1.3c-0.9,0-2.1,0.1-3.1,0.4c-1.6,0.5-4.4,2.9-4.4,6.2V312c0,2,0.3,3.9,1.9,4.8v1.6
		c-8.3-0.1-18.7,7.1-32.6,7.1c-18.1,0-32.1-13.8-32.1-31.6c0-18.2,14.5-33,32.6-33c2.6,0,5,0.3,8.1,0.7c1.7,0.3,3.9,0.5,6.2,0.5
		c3.9,0,8-0.4,11.8-1.7c0,7.2,1,14.6,3.7,21.1l-1.1,0.4c-5.7-10.1-17-19.7-29.5-19.7c-17,0-20.1,15.7-20.1,30c0,9.4,0.5,17.2,7.2,24
		c4.9,5,10.4,8.1,15.8,8.1c7.9,0,16.9-3.2,16.9-13.3v-10.9c0-1.3-3.1-5.5-4.7-5.5h-7.7v-1.3H347.6z"/>
	<path d="M421.3,325.6c-2,0.8-4,1.3-6.8,1.3c-10.6,0-17-8.7-20.6-16.3l-4.7-9.9c-3.4-7.3-5.9-8.7-9.4-8.7h-5.3v25.6
		c0,3.5,3.3,6.1,6.7,6.1h2.9v1.3h-28.9v-1.3c0.4,0,1.7-0.2,3.1-0.8c1.4-0.6,5-2.8,5-5.2v-48.8c0-1.8-1.7-4.7-3.8-5.4
		c-1.4-0.4-2.9-0.4-4.3-0.4v-1.3h20.5c3.7,0,7.5-0.3,11.1-0.3c14.3,0,23.7,8.2,23.7,16.8c0,13-11.9,13.6-23.1,14v0.2
		c8.2,1.9,13.3,9.6,16.3,15.7l3.1,6.3c2.4,4.8,5.4,10.3,10.9,10.3c1.2,0,2.3-0.3,3.3-0.6L421.3,325.6z M374.5,290.7H385
		c2.9,0,5.7-0.3,8-1.4c3.4-1.7,5.8-5.8,5.8-11.3c0-9-5.2-15.2-14.5-15.2c-5.5,0-9.8,1.9-9.8,6.7V290.7z"/>
	<path d="M426.8,324.9v-1.3c0.9,0,2.1-0.1,3-0.3c1.5-0.3,4.8-2.9,4.8-4.7V269c0-1.7-3.1-5.7-5.2-5.8c-1.1-0.1-2.4-0.1-3.3-0.2v-1.3
		h27.6v1.3c-0.9,0-1.9,0.1-3,0.3c-1.7,0.3-4.7,2.8-4.7,4.8v48.4c0,2.3,1.7,5.2,4.1,6.5c1.2,0.6,2.9,0.7,4.1,0.7v1.3H426.8z"/>
	<path d="M525.4,261.7c-0.2,2.4-0.3,4.9-0.3,7.2c0,3.3,0.3,6.7,1.2,9.9l-1.5,0.5c-2.1-5.8-14.3-16.1-20.5-16.1c-2.8,0-5.6,3-5.6,5.3
		v48.2c0,5.1,5.1,7.1,9.3,7.1v1.3h-29.8v-1.3c4,0,9.6-2.1,9.6-7V268c0-1.8-3.6-4.9-6.1-4.9c-5.7,0-16.2,10.9-19.2,15.7l-1.4-0.2
		c0.9-5.6,0.9-11.2,0.9-16.9H525.4z"/>
	<path d="M549,324.9v-1.3c5.7,0,9.1-4.7,9.1-5.6v-27.4L544,272.8c-3.5-4.4-7-9.9-13.6-9.9v-1.3h32.4v1.3c-4.1,0.1-7.6,0.6-7.6,5.1
		c0,3,1.1,4.4,3.1,6.9l9.8,12.3l8-8.8c3-3.3,4.8-5.3,4.8-9c0-5.2-2.3-6.5-7.6-6.5v-1.3h25.7v1.3c-4.9,0.4-13.8,7.5-17.3,11.5
		l-12.6,14v28.7c0,2.9,2,6.5,8.1,6.5v1.3H549z"/>
	<path d="M156.4,382.9v-0.5c0.5,0,0.9,0,1.4-0.2c1-0.4,2-1.7,2-2.3v-21.1c0-0.2-1.3-1.8-2-1.8c-0.5,0-0.9,0-1.4,0v-0.5h9.2
		c1.7,0,3.8-0.3,5.9-0.3c4.9,0,8.7,3.1,8.7,8.1c0,5.5-4.5,8.1-9.6,8.1c-2.6,0-4.1-0.5-6.1-1.3v8.8c0,1.5,1.3,2.6,2.7,2.6h0.7v0.5
		H156.4z M164.5,370.3c1.8,0.7,3.6,1.4,5.5,1.4c3.5,0,5.6-3.5,5.6-7.7c0-3.6-2.2-7.4-5.6-7.4c-1.1,0-2.9,0.1-3.7,0.4
		c-0.6,0.2-1.8,1.4-1.8,2.4V370.3z"/>
	<path class="st1" d="M156.4,382.9v-0.5c0.5,0,0.9,0,1.4-0.2c1-0.4,2-1.7,2-2.3v-21.1c0-0.2-1.3-1.8-2-1.8c-0.5,0-0.9,0-1.4,0v-0.5
		h9.2c1.7,0,3.8-0.3,5.9-0.3c4.9,0,8.7,3.1,8.7,8.1c0,5.5-4.5,8.1-9.6,8.1c-2.6,0-4.1-0.5-6.1-1.3v8.8c0,1.5,1.3,2.6,2.7,2.6h0.7
		v0.5H156.4z M164.5,370.3c1.8,0.7,3.6,1.4,5.5,1.4c3.5,0,5.6-3.5,5.6-7.7c0-3.6-2.2-7.4-5.6-7.4c-1.1,0-2.9,0.1-3.7,0.4
		c-0.6,0.2-1.8,1.4-1.8,2.4V370.3z"/>
	<path d="M226.2,383.2c-0.8,0.3-1.7,0.5-2.9,0.5c-4.4,0-7.2-3.7-8.7-6.9l-2-4.1c-1.4-3.1-2.5-3.7-4-3.7h-2.2v10.7
		c0,1.5,1.4,2.6,2.8,2.6h1.2v0.5h-12.1v-0.5c0.2,0,0.7-0.1,1.3-0.3c0.6-0.3,2.1-1.2,2.1-2.2v-20.5c0-0.8-0.7-2-1.6-2.3
		c-0.6-0.2-1.2-0.2-1.8-0.2v-0.5h8.6c1.5,0,3.1-0.1,4.7-0.1c6,0,9.9,3.4,9.9,7c0,5.5-5,5.7-9.7,5.9v0.1c3.4,0.8,5.6,4,6.9,6.6
		l1.3,2.6c1,2,2.3,4.3,4.6,4.3c0.5,0,1-0.1,1.4-0.3L226.2,383.2z M206.6,368.5h4.4c1.2,0,2.4-0.1,3.4-0.6c1.4-0.7,2.4-2.4,2.4-4.8
		c0-3.8-2.2-6.4-6.1-6.4c-2.3,0-4.1,0.8-4.1,2.8V368.5z"/>
	<path class="st1" d="M226.2,383.2c-0.8,0.3-1.7,0.5-2.9,0.5c-4.4,0-7.2-3.7-8.7-6.9l-2-4.1c-1.4-3.1-2.5-3.7-4-3.7h-2.2v10.7
		c0,1.5,1.4,2.6,2.8,2.6h1.2v0.5h-12.1v-0.5c0.2,0,0.7-0.1,1.3-0.3c0.6-0.3,2.1-1.2,2.1-2.2v-20.5c0-0.8-0.7-2-1.6-2.3
		c-0.6-0.2-1.2-0.2-1.8-0.2v-0.5h8.6c1.5,0,3.1-0.1,4.7-0.1c6,0,9.9,3.4,9.9,7c0,5.5-5,5.7-9.7,5.9v0.1c3.4,0.8,5.6,4,6.9,6.6
		l1.3,2.6c1,2,2.3,4.3,4.6,4.3c0.5,0,1-0.1,1.4-0.3L226.2,383.2z M206.6,368.5h4.4c1.2,0,2.4-0.1,3.4-0.6c1.4-0.7,2.4-2.4,2.4-4.8
		c0-3.8-2.2-6.4-6.1-6.4c-2.3,0-4.1,0.8-4.1,2.8V368.5z"/>
	<path d="M243.3,382.9v-0.5c1.5,0,3.7-1.3,3.7-2.8v-20.4c0-0.7-1.4-2.2-2.3-2.2l-0.9,0v-0.5h22.5c0.1,4,0,2.5,0.5,6.8h-0.5
		c-1.2-3.2-6.5-6.3-9.9-6.3h-1.9c-1,0-1.3,0.2-2,0.9c-0.5,0.4-0.9,0.7-0.9,1.4v9.2c0.6,0.1,1.1,0.1,1.7,0.1c2.8,0,3.8,0,5.2-1.1
		c1.4-1.1,2.7-2.2,2.7-4.3h0.5v12.1h-0.5c0-0.9,0-1.6-0.3-2.4c-0.6-2.1-3.1-3.7-5.3-3.7h-4v10.5c0,1.2,1.4,2.8,3.4,2.8
		c2.3,0,6.1-1.8,7.3-2.4c3.7-2,5.3-3.5,6.6-5.5l0.5,0.1c-1,2.7-1.8,5.5-2.2,8.4H243.3z"/>
	<path class="st1" d="M243.3,382.9v-0.5c1.5,0,3.7-1.3,3.7-2.8v-20.4c0-0.7-1.4-2.2-2.3-2.2l-0.9,0v-0.5h22.5c0.1,4,0,2.5,0.5,6.8
		h-0.5c-1.2-3.2-6.5-6.3-9.9-6.3h-1.9c-1,0-1.3,0.2-2,0.9c-0.5,0.4-0.9,0.7-0.9,1.4v9.2c0.6,0.1,1.1,0.1,1.7,0.1
		c2.8,0,3.8,0,5.2-1.1c1.4-1.1,2.7-2.2,2.7-4.3h0.5v12.1h-0.5c0-0.9,0-1.6-0.3-2.4c-0.6-2.1-3.1-3.7-5.3-3.7h-4v10.5
		c0,1.2,1.4,2.8,3.4,2.8c2.3,0,6.1-1.8,7.3-2.4c3.7-2,5.3-3.5,6.6-5.5l0.5,0.1c-1,2.7-1.8,5.5-2.2,8.4H243.3z"/>
	<path d="M295.5,356.4l7,16.5l6.8-14.5c0.1-0.3,0.2-0.5,0.2-0.9v-1.1h9.6v0.5l-1.5,0.1c-0.4,0-3.4,1.2-3.4,2.9
		c0,1.2,0.2,2.5,0.3,3.3l1.3,16.1c0.1,1.4,2.2,2.9,2.8,2.9l1.7,0.1v0.5h-13.1v-0.5c1.8-0.1,4.2-1.1,4.2-3.2c0-1.1-0.1-2-0.2-2.9
		l-1.4-17.4h-0.1l-9.4,20.2l-7.8-18.5h-0.1l-1.5,13.5c-0.1,1.1-0.4,2.6-0.4,3.7c0,3.3,1.8,4.4,4.8,4.6v0.5H285v-0.5
		c2.2-0.3,4.7-2.9,4.9-4.9l1.7-14.6c0.1-0.9,0.2-1.8,0.2-2.7c0-1.4-2.1-3.1-3.4-3.2c-0.6,0-1.1-0.1-1.7-0.1v-0.5H295.5z"/>
	<path class="st1" d="M295.5,356.4l7,16.5l6.8-14.5c0.1-0.3,0.2-0.5,0.2-0.9v-1.1h9.6v0.5l-1.5,0.1c-0.4,0-3.4,1.2-3.4,2.9
		c0,1.2,0.2,2.5,0.3,3.3l1.3,16.1c0.1,1.4,2.2,2.9,2.8,2.9l1.7,0.1v0.5h-13.1v-0.5c1.8-0.1,4.2-1.1,4.2-3.2c0-1.1-0.1-2-0.2-2.9
		l-1.4-17.4h-0.1l-9.4,20.2l-7.8-18.5h-0.1l-1.5,13.5c-0.1,1.1-0.4,2.6-0.4,3.7c0,3.3,1.8,4.4,4.8,4.6v0.5H285v-0.5
		c2.2-0.3,4.7-2.9,4.9-4.9l1.7-14.6c0.1-0.9,0.2-1.8,0.2-2.7c0-1.4-2.1-3.1-3.4-3.2c-0.6,0-1.1-0.1-1.7-0.1v-0.5H295.5z"/>
	<path d="M338.8,382.9v-0.5c0.4,0,0.9,0,1.3-0.1c0.6-0.1,2-1.2,2-2v-20.8c0-0.7-1.3-2.4-2.2-2.4c-0.5,0-1,0-1.4-0.1v-0.5h11.6v0.5
		c-0.4,0-0.8,0-1.2,0.1c-0.7,0.1-2,1.2-2,2v20.3c0,1,0.7,2.2,1.7,2.7c0.5,0.3,1.2,0.3,1.7,0.3v0.5H338.8z"/>
	<path class="st1" d="M338.8,382.9v-0.5c0.4,0,0.9,0,1.3-0.1c0.6-0.1,2-1.2,2-2v-20.8c0-0.7-1.3-2.4-2.2-2.4c-0.5,0-1,0-1.4-0.1
		v-0.5h11.6v0.5c-0.4,0-0.8,0-1.2,0.1c-0.7,0.1-2,1.2-2,2v20.3c0,1,0.7,2.2,1.7,2.7c0.5,0.3,1.2,0.3,1.7,0.3v0.5H338.8z"/>
	<path d="M385.6,356.4v0.5c-0.9,0-1.7,0-2.2,0.2c-0.4,0.1-1.7,1-1.7,2.5V375c0,3.8,4.1,6.9,7.8,6.9c5.1,0,8.4-4.3,8.4-10.2v-9.7
		c0-1.1-2.3-4.2-4.3-4.9c-0.5-0.2-1.5-0.2-2.1-0.2v-0.5h11.9v0.5c-0.4,0-0.9,0.2-1.5,0.4c-1.8,0.6-3.5,4-3.5,4.8v9.9
		c0,6.8-4.1,11.2-10.9,11.2c-5.4,0-10.4-3.9-10.4-10.5V359c0-0.7-1.2-1.7-2-2c-0.4-0.1-1.1-0.1-1.5-0.1v-0.5H385.6z"/>
	<path class="st1" d="M385.6,356.4v0.5c-0.9,0-1.7,0-2.2,0.2c-0.4,0.1-1.7,1-1.7,2.5V375c0,3.8,4.1,6.9,7.8,6.9
		c5.1,0,8.4-4.3,8.4-10.2v-9.7c0-1.1-2.3-4.2-4.3-4.9c-0.5-0.2-1.5-0.2-2.1-0.2v-0.5h11.9v0.5c-0.4,0-0.9,0.2-1.5,0.4
		c-1.8,0.6-3.5,4-3.5,4.8v9.9c0,6.8-4.1,11.2-10.9,11.2c-5.4,0-10.4-3.9-10.4-10.5V359c0-0.7-1.2-1.7-2-2c-0.4-0.1-1.1-0.1-1.5-0.1
		v-0.5H385.6z"/>
	<path d="M425.4,356.4l7,16.5l6.8-14.5c0.1-0.3,0.2-0.5,0.2-0.9v-1.1h9.6v0.5l-1.5,0.1c-0.4,0-3.4,1.2-3.4,2.9
		c0,1.2,0.2,2.5,0.3,3.3l1.3,16.1c0.1,1.4,2.2,2.9,2.8,2.9l1.7,0.1v0.5H437v-0.5c1.8-0.1,4.2-1.1,4.2-3.2c0-1.1-0.1-2-0.2-2.9
		l-1.4-17.4h-0.1l-9.4,20.2l-7.8-18.5h-0.1l-1.5,13.5c-0.1,1.1-0.4,2.6-0.4,3.7c0,3.3,1.8,4.4,4.8,4.6v0.5h-10.3v-0.5
		c2.2-0.3,4.7-2.9,4.9-4.9l1.7-14.6c0.1-0.9,0.2-1.8,0.2-2.7c0-1.4-2.1-3.1-3.4-3.2c-0.6,0-1.1-0.1-1.7-0.1v-0.5H425.4z"/>
	<path class="st1" d="M425.4,356.4l7,16.5l6.8-14.5c0.1-0.3,0.2-0.5,0.2-0.9v-1.1h9.6v0.5l-1.5,0.1c-0.4,0-3.4,1.2-3.4,2.9
		c0,1.2,0.2,2.5,0.3,3.3l1.3,16.1c0.1,1.4,2.2,2.9,2.8,2.9l1.7,0.1v0.5H437v-0.5c1.8-0.1,4.2-1.1,4.2-3.2c0-1.1-0.1-2-0.2-2.9
		l-1.4-17.4h-0.1l-9.4,20.2l-7.8-18.5h-0.1l-1.5,13.5c-0.1,1.1-0.4,2.6-0.4,3.7c0,3.3,1.8,4.4,4.8,4.6v0.5h-10.3v-0.5
		c2.2-0.3,4.7-2.9,4.9-4.9l1.7-14.6c0.1-0.9,0.2-1.8,0.2-2.7c0-1.4-2.1-3.1-3.4-3.2c-0.6,0-1.1-0.1-1.7-0.1v-0.5H425.4z"/>
	<path d="M603.6,270.2c0-4.9,3.6-8.7,8.5-8.7c4.9,0,8.5,3.8,8.5,8.7c0,4.9-3.6,8.7-8.5,8.7C607.2,278.9,603.6,275.1,603.6,270.2
		 M618.6,270.2c0-4-2.7-7.3-6.5-7.3c-3.8,0-6.5,3.3-6.5,7.3c0,4,2.7,7.2,6.5,7.2C615.9,277.4,618.6,274.2,618.6,270.2 M608.1,265.3
		h4.9c1.5,0,2.7,0.7,2.7,2.4c0,1.1-0.7,2.1-1.9,2.5l1.4,2.1c0.5,0.7,1,1.5,1.5,2v0.3h-2.2c-0.8,0-1.5-2.3-2.6-4.1h-0.7v2.6
		c0,0.8,0,0.9,1.1,1v0.5h-4.3v-0.5c1.1-0.1,1.1-0.2,1.1-1v-6.3c0-0.8,0-0.9-1.1-1V265.3z M611.3,269.9h0.7c1.1,0,1.3-1.1,1.3-2.1
		c0-1.4-0.5-1.9-1.3-1.9h-0.8V269.9z"/>
</g>
</svg>
