<?xml version="1.0" encoding="utf-8"?>
<!-- Generator: Adobe Illustrator 19.2.1, SVG Export Plug-In . SVG Version: 6.00 Build 0)  -->
<svg version="1.1" id="layer" xmlns="http://www.w3.org/2000/svg" xmlns:xlink="http://www.w3.org/1999/xlink" x="0px" y="0px"
	 viewBox="0 0 652 652" style="enable-background:new 0 0 652 652;" xml:space="preserve">
<style type="text/css">
	.st0{fill:#231815;}
</style>
<g>
	<path class="st0" d="M58.9,322.6c0,9.1-7.1,16-16.6,16c-9.3,0-16.6-7-16.6-15.9c0-9,7.4-16.1,16.8-16.1
		C51.8,306.7,58.9,313.5,58.9,322.6 M42.4,301.1c-12.4,0-22.4,9.7-22.4,21.7c0,11.8,9.9,21.5,22.1,21.5c12.8,0,22.4-9.3,22.4-21.7
		C64.5,310.5,54.8,301.1,42.4,301.1"/>
</g>
<polygon class="st0" points="132.5,302 132.5,343.2 167.9,343.2 167.9,337.6 138.2,337.6 138.2,325.1 154.8,325.1 154.8,319.2 
	138.2,319.2 138.2,307.6 166.7,307.6 166.7,302 "/>
<g>
	<path class="st0" d="M102,319.2H84.6v-11.7h17.7c2.2,0,3.3,0.3,3.7,0.5c2.2,0.9,3.5,2.9,3.5,5.2C109.6,318.2,105.5,319.2,102,319.2
		 M84.6,325H102c6.3,0,9.4,2.1,9.4,6.6c0,1.9-0.7,3.4-2.1,4.5c-1.3,1-2.4,1.5-7.4,1.5H84.6V325z M111.5,321.6
		c2.6-2.4,3.7-4.8,3.7-8.2c0-7.1-5-11.5-13.2-11.5H79v41.2h23c5.4,0,8.1-0.3,11.1-2.9c2.5-2.2,3.9-5.3,3.9-8.6
		C117.1,327.5,115.1,324,111.5,321.6"/>
</g>
<polygon class="st0" points="456.5,302 456.5,334.5 430.7,302 425.3,302 425.3,343.2 430.9,343.2 430.9,311.1 456.7,343.2 
	462.1,343.2 462.1,302 "/>
<polygon class="st0" points="534.2,302 534.2,343.2 569.6,343.2 569.6,337.6 539.9,337.6 539.9,325.1 556.5,325.1 556.5,319.2 
	556.5,319.1 539.9,319.1 539.9,307.6 568.4,307.6 568.4,302 "/>
<g>
	<path class="st0" d="M498.5,325h14v6.3c0,4.9-6.7,6.6-8,6.8c-1.6,0.3-3.2,0.5-4.8,0.5c-10,0-17.3-6.7-17.3-15.9
		c0-9.1,7.4-16,17.2-16c6,0,9.7,2.3,13.8,6.1l0.3,0.3l3.8-4l-0.3-0.3c-5.4-5.4-10.6-7.6-17.5-7.6c-13,0-22.8,9.3-22.8,21.5
		c0,12.5,9.6,21.6,22.8,21.6c2.6,0,5.2-0.4,7.6-1c5.2-1.6,10.9-5.4,10.9-11.5v-12.4h-19.6V325z"/>
	<path class="st0" d="M322.3,322.6c0,9.1-7.1,16-16.6,16c-9.3,0-16.6-7-16.6-15.9c0-9,7.4-16.1,16.8-16.1
		C315.3,306.7,322.3,313.5,322.3,322.6 M305.9,301.1c-12.4,0-22.4,9.8-22.4,21.7c0,11.8,9.9,21.5,22.1,21.5
		c12.8,0,22.4-9.3,22.4-21.7C328,310.5,318.3,301.1,305.9,301.1"/>
	<path class="st0" d="M258.4,319.2h-17.2v-11.7h17.2c5.3,0,7.6,1.8,7.6,5.8C266,317.4,263.6,319.2,258.4,319.2 M258.4,302h-22.8
		v41.2h5.6V325h17.2c8,0,13.2-4.6,13.2-11.7C271.6,306.5,266.4,302,258.4,302"/>
	<path class="st0" d="M188.8,319.2v-11.7H206c5.3,0,7.6,1.8,7.6,5.8c0,4-2.3,5.8-7.6,5.8H188.8z M208.8,324.9
		c6.4-0.9,10.4-5.2,10.4-11.5c0-6.8-5-11.2-12.7-11.4v0H206h-18.7h-4.2v41.2h5.6v-18.2h13.7l9.4,18.2h6.4l-9.4-18.2L208.8,324.9z"/>
</g>
<rect x="401.5" y="301.9" class="st0" width="5.6" height="41.3"/>
<polygon class="st0" points="342.7,302 342.7,343.2 384,343.2 384,337.6 348.3,337.6 348.3,302 "/>
<polygon class="st0" points="361.1,301.9 361.1,324.9 384,324.9 384,319.3 366.7,319.3 366.7,301.9 "/>
<g>
	<path class="st0" d="M589.6,319.2v-11.7h17.2c5.3,0,7.6,1.8,7.6,5.8c0,4-2.3,5.8-7.6,5.8H589.6z M609.6,324.8
		c6.4-0.9,10.4-5.2,10.4-11.5c0-6.8-5-11.2-12.7-11.4v0h-0.5h-18.7H584v41.2h5.6V325h13.7l9.4,18.2h6.4l-9.4-18.2L609.6,324.8z"/>
</g>
</svg>
