<?xml version="1.0" encoding="UTF-8"?>
<svg id="Calque_1" data-name="Calque 1" xmlns="http://www.w3.org/2000/svg" viewBox="0 0 275.5 62.9">
  <defs>
    <style>
      .cls-1 {
        fill: #1d1d1b;
      }
    </style>
  </defs>
  <path class="cls-1" d="m51.95,51.59c-5.19,0-9.42-1.59-12.68-4.78-3.26-3.18-4.89-7.43-4.89-12.73v-.92c0-3.55.69-6.73,2.06-9.54,1.37-2.8,3.32-4.96,5.84-6.48,2.52-1.52,5.39-2.27,8.62-2.27,4.84,0,8.65,1.53,11.43,4.58,2.78,3.05,4.17,7.38,4.17,12.99v3.86h-22.54c.31,2.31,1.23,4.17,2.76,5.56,1.54,1.4,3.48,2.09,5.84,2.09,3.64,0,6.49-1.32,8.54-3.96l4.65,5.2c-1.42,2.01-3.34,3.57-5.76,4.69-2.42,1.12-5.1,1.68-8.05,1.68Zm-1.08-29.08c-1.88,0-3.4.64-4.56,1.91-1.17,1.27-1.91,3.09-2.24,5.45h13.15v-.76c-.04-2.1-.61-3.73-1.7-4.88-1.09-1.15-2.64-1.73-4.65-1.73Z"/>
  <path class="cls-1" d="m84.52,15.59c1.47,0,2.86.15,4.17.44,1.31.29,2.52.7,3.63,1.24h10.49v3.79c0,.58-.16,1.04-.49,1.37-.32.33-.88.59-1.66.77l-2.55.57c.31,1,.47,2.04.47,3.12,0,1.74-.36,3.31-1.09,4.69-.73,1.38-1.72,2.56-2.98,3.53-1.26.97-2.75,1.72-4.47,2.24-1.72.53-3.56.79-5.53.79-1.09,0-2.12-.07-3.08-.2-.76.45-1.14.97-1.14,1.56s.31,1.01.92,1.27c.61.26,1.42.44,2.43.54,1,.1,2.15.15,3.45.15s2.61.06,3.95.18c1.34.12,2.66.33,3.95.62,1.29.29,2.45.76,3.45,1.41,1.01.65,1.81,1.52,2.43,2.6.61,1.09.92,2.47.92,4.15,0,1.57-.38,3.1-1.14,4.6-.76,1.5-1.88,2.83-3.35,4-1.47,1.17-3.28,2.1-5.43,2.81-2.14.71-4.6,1.06-7.37,1.06s-5.08-.26-7.05-.77c-1.98-.51-3.62-1.19-4.92-2.03-1.31-.84-2.27-1.81-2.9-2.9-.63-1.1-.94-2.24-.94-3.42,0-1.54.47-2.84,1.41-3.91.94-1.06,2.22-1.89,3.85-2.5-.78-.51-1.41-1.17-1.88-1.97-.47-.8-.7-1.82-.7-3.04,0-.51.09-1.05.27-1.62.18-.57.46-1.12.84-1.66.38-.53.86-1.05,1.44-1.54.58-.49,1.27-.93,2.08-1.3-1.81-.96-3.23-2.23-4.27-3.82-1.04-1.59-1.56-3.43-1.56-5.53,0-1.74.37-3.31,1.11-4.71.74-1.4,1.75-2.58,3.03-3.55,1.28-.97,2.8-1.72,4.54-2.24,1.74-.52,3.63-.79,5.66-.79Zm7.71,36.54c0-.57-.17-1.03-.52-1.37-.35-.34-.82-.62-1.41-.82-.59-.21-1.28-.35-2.08-.44-.79-.09-1.65-.14-2.56-.14h-2.85c-.98,0-1.95-.09-2.91-.28-.65.45-1.18.95-1.59,1.49-.41.55-.62,1.17-.62,1.86,0,.49.11.94.32,1.34.21.4.59.75,1.12,1.04.54.29,1.26.52,2.16.69.9.17,2.05.25,3.43.25,1.5,0,2.72-.09,3.69-.27.96-.18,1.73-.43,2.29-.75.57-.32.97-.7,1.19-1.15.22-.45.33-.93.33-1.45Zm-7.71-20.39c1.72,0,2.96-.43,3.74-1.29.77-.86,1.16-1.97,1.16-3.33s-.39-2.51-1.16-3.32c-.77-.8-2.02-1.21-3.74-1.21s-2.96.4-3.73,1.21c-.77.8-1.16,1.91-1.16,3.32,0,.67.09,1.28.28,1.84.19.56.49,1.04.89,1.46s.91.74,1.52.97c.61.23,1.35.35,2.19.35Z"/>
  <path class="cls-1" d="m127.43,50.94c-.44-.85-.75-1.91-.95-3.17-2.29,2.55-5.27,3.83-8.93,3.83-3.47,0-6.34-1-8.62-3.01-2.28-2.01-3.42-4.54-3.42-7.59,0-3.75,1.39-6.63,4.17-8.64,2.78-2.01,6.8-3.02,12.06-3.04h4.35v-2.03c0-1.64-.42-2.94-1.26-3.93-.84-.98-2.17-1.47-3.98-1.47-1.59,0-2.84.38-3.75,1.15-.91.76-1.36,1.81-1.36,3.14h-9.45c0-2.05.63-3.95,1.9-5.69,1.26-1.74,3.05-3.11,5.37-4.11,2.31-.99,4.91-1.49,7.79-1.49,4.36,0,7.82,1.1,10.39,3.29,2.56,2.19,3.84,5.27,3.84,9.24v15.34c.02,3.36.49,5.9,1.41,7.62v.56h-9.55Zm-7.82-6.58c1.4,0,2.68-.31,3.86-.93,1.18-.62,2.05-1.46,2.62-2.5v-6.08h-3.53c-4.73,0-7.25,1.64-7.56,4.91l-.03.56c0,1.18.41,2.15,1.24,2.91.83.76,1.96,1.15,3.4,1.15Z"/>
  <path class="cls-1" d="m152.81,50.94h-9.49V.69h9.49v50.25Z"/>
  <path class="cls-1" d="m163.19,50.94v-28.46h-5.27v-6.94h5.27v-3.01c0-3.97,1.14-7.05,3.42-9.24,2.28-2.19,5.47-3.29,9.57-3.29,1.31,0,2.91.22,4.81.65l-.1,7.33c-.79-.2-1.75-.29-2.88-.29-3.55,0-5.33,1.67-5.33,5.01v2.85h7.03v6.94h-7.03v28.46h-9.49Z"/>
  <path class="cls-1" d="m204.5,24.41c-1.29-.17-2.42-.26-3.4-.26-3.58,0-5.92,1.21-7.03,3.63v23.16h-9.46V15.54h8.93l.26,4.22c1.9-3.25,4.53-4.87,7.88-4.87,1.05,0,2.03.14,2.94.43l-.13,9.09Z"/>
  <path class="cls-1" d="m224.72,51.59c-5.19,0-9.42-1.59-12.68-4.78-3.26-3.18-4.89-7.43-4.89-12.73v-.92c0-3.55.69-6.73,2.06-9.54,1.37-2.8,3.32-4.96,5.84-6.48,2.52-1.52,5.39-2.27,8.62-2.27,4.84,0,8.65,1.53,11.43,4.58,2.78,3.05,4.17,7.38,4.17,12.99v3.86h-22.54c.3,2.31,1.23,4.17,2.76,5.56,1.54,1.4,3.48,2.09,5.84,2.09,3.64,0,6.49-1.32,8.54-3.96l4.64,5.2c-1.42,2.01-3.34,3.57-5.76,4.69-2.42,1.12-5.1,1.68-8.05,1.68Zm-1.08-29.08c-1.88,0-3.4.64-4.56,1.91-1.17,1.27-1.91,3.09-2.24,5.45h13.15v-.76c-.04-2.1-.61-3.73-1.7-4.88-1.09-1.15-2.64-1.73-4.65-1.73Z"/>
  <path class="cls-1" d="m260.94,51.59c-5.19,0-9.42-1.59-12.68-4.78-3.26-3.18-4.89-7.43-4.89-12.73v-.92c0-3.55.69-6.73,2.06-9.54,1.38-2.8,3.32-4.96,5.84-6.48,2.52-1.52,5.39-2.27,8.62-2.27,4.84,0,8.65,1.53,11.43,4.58,2.78,3.05,4.17,7.38,4.17,12.99v3.86h-22.54c.3,2.31,1.23,4.17,2.76,5.56,1.54,1.4,3.48,2.09,5.84,2.09,3.64,0,6.49-1.32,8.54-3.96l4.64,5.2c-1.42,2.01-3.34,3.57-5.76,4.69-2.42,1.12-5.1,1.68-8.05,1.68Zm-1.08-29.08c-1.88,0-3.4.64-4.56,1.91-1.17,1.27-1.91,3.09-2.24,5.45h13.15v-.76c-.04-2.1-.61-3.73-1.7-4.88-1.09-1.15-2.64-1.73-4.65-1.73Z"/>
  <polygon points="9.81 3.3 0 3.3 0 17.62 9.81 11.96 9.81 3.3"/>
  <polygon points="9.81 43.05 9.81 23.29 0 28.96 0 50.94 30.65 50.94 30.65 43.05 9.81 43.05"/>
</svg>