<?xml version="1.0" encoding="utf-8"?>
<!-- Generator: Adobe Illustrator 19.2.1, SVG Export Plug-In . SVG Version: 6.00 Build 0)  -->
<svg version="1.1" id="layer" xmlns="http://www.w3.org/2000/svg" xmlns:xlink="http://www.w3.org/1999/xlink" x="0px" y="0px"
	 viewBox="0 0 652 652" style="enable-background:new 0 0 652 652;" xml:space="preserve">
<style type="text/css">
	.st0{fill:#2A2A2A;}
	.st1{fill:#FFFFFF;}
</style>
<path class="st0" d="M25.8,248.5c-2.2,0-4.1,1.8-4.1,4.1v135.9c0,2.2,1.8,4.1,4.1,4.1h135.9c2.2,0,4.1-1.8,4.1-4.1V252.6
	c0-2.2-1.8-4.1-4.1-4.1H25.8z M222,291.7v24.6h-0.2c-1.3-1.7-3-3-5.1-3.8c-2.2-0.7-4.4-1.1-6.7-1.1c-2.5,0-4.9,0.5-7.1,1.6
	c-2.1,1.1-3.9,2.6-5.3,4.4c-1.5,1.9-2.6,4-3.4,6.3c-0.8,2.4-1.2,4.9-1.2,7.4c0,2.6,0.4,5.2,1.3,7.7c0.8,2.2,2.1,4.3,3.7,6.1
	c1.6,1.7,3.6,3.1,5.8,4h0c2.4,1,4.9,1.5,7.5,1.4c1.3,0,2.5-0.2,3.7-0.5c1.1-0.3,2.2-0.8,3.3-1.4c0.9-0.5,1.8-1.1,2.6-1.9
	c0.7-0.6,1.3-1.3,1.8-2h0.1v4.9h10.5v-57.7H222z M323.3,291.7v57.7l11.5,0v-57.7H323.3z M363.8,311.4c-2.2-0.1-4.4,0.5-6.3,1.7
	c-1.8,1.3-3.4,3.1-4.4,5.1h-0.2v-5.9h-11.4v37.1l11.4,0v-15.5c0-1.7,0.1-3.4,0.3-5c0.2-1.4,0.6-2.7,1.3-3.9c0.7-1.1,1.7-2,2.9-2.6
	c1.6-0.7,3.4-1,5.2-0.9c0.8,0,1.7,0.1,2.5,0.2c0.8,0.1,1.6,0.3,2.4,0.6v-10.4c-0.6-0.2-1.2-0.3-1.8-0.3
	C365.2,311.4,364.6,311.4,363.8,311.4C363.9,311.4,363.9,311.4,363.8,311.4L363.8,311.4z M389.2,311.4c-2.7,0-5.5,0.4-8.1,1.4
	c-2.4,0.9-4.7,2.2-6.6,3.9c-1.9,1.7-3.4,3.8-4.4,6.2c-1.1,2.5-1.7,5.2-1.6,8c-0.1,2.7,0.5,5.5,1.6,8c1,2.3,2.5,4.4,4.4,6.1
	c1.9,1.7,4.2,3.1,6.6,3.9c2.6,0.9,5.3,1.4,8.1,1.4c2.8,0,5.5-0.5,8.1-1.4c2.4-0.9,4.7-2.2,6.6-3.9c1.9-1.7,3.4-3.8,4.4-6.1
	c1.1-2.5,1.6-5.3,1.6-8c0-2.8-0.5-5.5-1.6-8c-1-2.3-2.5-4.4-4.4-6.2c-1.9-1.7-4.1-3.1-6.6-3.9C394.6,311.8,391.9,311.4,389.2,311.4
	L389.2,311.4z M434.3,311.4c-2.8,0-5.5,0.4-8.1,1.4c-2.4,0.9-4.7,2.2-6.6,3.9c-1.9,1.7-3.4,3.8-4.4,6.2c-1.1,2.5-1.7,5.2-1.6,8
	c0,2.7,0.5,5.5,1.6,8c1,2.3,2.5,4.4,4.4,6.1c1.9,1.7,4.1,3.1,6.6,3.9h0c2.6,0.9,5.3,1.4,8.1,1.4c2.7,0,5.5-0.5,8.1-1.4
	c2.4-0.9,4.7-2.2,6.6-3.9c1.9-1.7,3.4-3.8,4.4-6.1c1.1-2.5,1.6-5.3,1.6-8c0-2.8-0.5-5.5-1.6-8c-1-2.3-2.5-4.4-4.4-6.2
	c-1.9-1.7-4.1-3.1-6.6-3.9C439.8,311.8,437.1,311.4,434.3,311.4L434.3,311.4z M565.9,311.4c-2.8,0-5.5,0.4-8.1,1.4
	c-2.4,0.9-4.7,2.2-6.6,3.9c-1.9,1.7-3.4,3.8-4.4,6.2c-1.1,2.5-1.6,5.2-1.6,8c0,2.7,0.5,5.5,1.6,8c1,2.3,2.5,4.4,4.4,6.1
	c1.9,1.7,4.1,3.1,6.6,3.9c2.6,0.9,5.3,1.4,8.1,1.4c2.3,0,4.7-0.4,6.9-1.1c2.4-0.7,4.6-2.1,6.3-3.9l-7.6-7.9c-0.7,0.8-1.5,1.4-2.4,2
	c-1,0.6-2.1,0.9-3.3,0.8c-2.5,0.2-5-0.8-6.8-2.6c-1.7-1.8-2.5-4.3-2.4-6.8c-0.1-2.5,0.8-4.9,2.4-6.8c1.8-1.8,4.2-2.7,6.8-2.6
	c1.1,0,2.3,0.3,3.3,0.8c0.9,0.5,1.8,1.2,2.4,2l7.6-7.9c-1.7-1.8-3.9-3.1-6.3-3.8C570.6,311.8,568.3,311.4,565.9,311.4L565.9,311.4z
	 M601.1,311.4c-2.7,0-5.5,0.4-8.1,1.4c-2.4,0.9-4.7,2.2-6.6,3.9c-1.9,1.7-3.4,3.8-4.4,6.2c-1.1,2.5-1.6,5.2-1.6,8
	c0,2.7,0.5,5.5,1.6,8c1,2.3,2.5,4.4,4.4,6.1c1.9,1.7,4.1,3.1,6.6,3.9c2.6,0.9,5.3,1.4,8.1,1.4c2.7,0,5.5-0.5,8.1-1.4
	c2.4-0.9,4.7-2.2,6.6-3.9c1.9-1.7,3.4-3.8,4.4-6.1c1.1-2.5,1.7-5.3,1.6-8c0-2.8-0.5-5.5-1.6-8c-1-2.3-2.5-4.4-4.4-6.2
	c-1.9-1.7-4.1-3.1-6.6-3.9C606.6,311.8,603.8,311.4,601.1,311.4L601.1,311.4z M260.7,311.4c-2.7,0-5.5,0.5-8.1,1.4
	c-2.4,0.9-4.7,2.2-6.6,3.9c-1.9,1.7-3.4,3.8-4.4,6.1c-1.1,2.5-1.6,5.2-1.6,8c-0.1,2.7,0.5,5.5,1.6,8c1,2.3,2.5,4.4,4.4,6.1
	c1.9,1.7,4.2,3.1,6.6,3.9l0,0c2.6,0.9,5.3,1.4,8,1.4c3,0,6-0.6,8.7-1.9c2.7-1.2,5.1-3.1,7-5.4l-8-5.9c-0.9,1.3-2.1,2.4-3.4,3.2
	c-1.4,0.9-3.1,1.3-4.8,1.3c-2.1,0.1-4.1-0.6-5.6-1.9c-1.6-1.4-2.6-3.2-3-5.2h26.6v-3.6c0-2.7-0.4-5.4-1.2-8
	c-0.8-2.3-1.9-4.4-3.5-6.1c-1.5-1.7-3.4-3-5.5-3.9C265.6,311.8,263.1,311.3,260.7,311.4L260.7,311.4z M300.5,311.4
	c-3,0-6,0.5-8.9,1.5c-2.8,1-5.3,2.5-7.5,4.5l6.1,6.2c1.2-1.3,2.6-2.4,4.2-3.3c1.6-0.8,3.4-1.2,5.1-1.2c1.9,0,3.7,0.6,5.2,1.8
	c1.4,1.2,2.2,3,2.2,4.8c-1.6,0-3.3,0-5.1,0.1c-1.9,0.1-3.7,0.2-5.6,0.5c-1.8,0.2-3.6,0.6-5.4,1.2c-1.6,0.5-3.2,1.3-4.6,2.3
	c-1.3,0.9-2.4,2.2-3.2,3.7c-0.8,1.7-1.3,3.5-1.2,5.4c0,1.7,0.3,3.4,1.1,5c0.7,1.4,1.7,2.6,2.9,3.6c1.3,1,2.7,1.7,4.2,2.2v0
	c1.6,0.5,3.3,0.8,5,0.8c2.3,0,4.6-0.4,6.7-1.3c2.1-0.9,3.9-2.3,5.1-4.3h0.2v4.7h10.5v-18.8c0-2.8-0.2-5.5-0.8-8.2
	c-0.4-2.2-1.4-4.2-2.7-6c-1.4-1.7-3.2-3-5.2-3.7C306.1,311.7,303.3,311.3,300.5,311.4L300.5,311.4z M482.2,311.4
	c-1.3,0-2.6,0.2-3.8,0.6c-1.1,0.3-2.2,0.8-3.1,1.4c-0.9,0.5-1.7,1.2-2.4,1.9c-0.6,0.6-1.1,1.4-1.5,2.1h-0.2v-5h-11v37.1h11.4v-18.5
	c0-1.2,0.1-2.3,0.2-3.5c0.1-1,0.5-2.1,1-3c0.5-0.9,1.2-1.6,2.1-2.1c1.1-0.6,2.3-0.9,3.6-0.8c1.1-0.1,2.2,0.2,3,0.9
	c0.7,0.6,1.2,1.4,1.5,2.2c0.3,0.9,0.5,1.8,0.5,2.8c0.1,1,0.1,1.8,0.1,2.4v19.6h11.4v-19.6c0-1.1,0.1-2.2,0.3-3.2
	c0.2-1,0.6-1.9,1.2-2.7c0.5-0.8,1.3-1.4,2.1-1.8c1.1-0.5,2.2-0.7,3.3-0.6c1.6-0.2,3.1,0.6,3.9,1.8c0.8,1.4,1.1,2.9,1.1,4.5v21.6
	l11.4,0v-21.9c0-2.1-0.2-4.2-0.6-6.3c-0.4-1.8-1.1-3.6-2.1-5.1c-1-1.5-2.4-2.7-4.1-3.4c-2-0.9-4.1-1.3-6.3-1.3
	c-2.4-0.1-4.8,0.4-6.9,1.5c-2.1,1.2-3.7,3-4.8,5.1c-0.9-2.2-2.5-3.9-4.5-5C487,311.9,484.6,311.4,482.2,311.4L482.2,311.4z
	 M259.8,319.6c1.8,0,3.6,0.7,4.9,2.1c1.3,1.3,2,3.1,1.9,5h-15.1c0-0.9,0.3-1.8,0.6-2.6c0.4-0.8,0.9-1.6,1.6-2.2
	c0.7-0.7,1.6-1.2,2.5-1.6l0,0c1.1-0.4,2.2-0.6,3.3-0.6C259.7,319.6,259.7,319.6,259.8,319.6L259.8,319.6z M214.2,321.4
	c2.4,0,4.6,0.9,6.3,2.6c1.7,1.9,2.5,4.3,2.4,6.8c0.1,2.5-0.7,4.9-2.4,6.8c-1.8,1.8-4.2,2.7-6.7,2.6c-2.5,0.1-5-0.8-6.7-2.6
	c-1.7-1.9-2.5-4.3-2.4-6.8c-0.1-2.5,0.8-4.9,2.4-6.8h0c1.8-1.8,4.2-2.7,6.7-2.6C213.9,321.4,214,321.4,214.2,321.4L214.2,321.4z
	 M389.6,321.4c2.4,0,4.6,0.9,6.3,2.6c1.7,1.9,2.5,4.3,2.4,6.8c0.1,2.5-0.7,4.9-2.4,6.8c-1.8,1.8-4.3,2.7-6.8,2.6
	c-2.5,0.2-5-0.8-6.8-2.6c-1.6-1.9-2.5-4.3-2.4-6.8c-0.1-2.5,0.8-4.9,2.4-6.8h0c1.8-1.8,4.2-2.7,6.8-2.6
	C389.3,321.4,389.5,321.4,389.6,321.4L389.6,321.4z M434.8,321.4c2.4,0,4.6,0.9,6.3,2.6c1.6,1.9,2.5,4.3,2.4,6.8
	c0.1,2.5-0.8,4.9-2.4,6.8c-1.8,1.8-4.2,2.7-6.8,2.6c-2.5,0.2-5-0.8-6.8-2.6c-1.6-1.9-2.5-4.3-2.4-6.8c-0.1-2.5,0.8-4.9,2.4-6.8h0
	c1.8-1.8,4.2-2.7,6.8-2.6C434.5,321.4,434.6,321.4,434.8,321.4L434.8,321.4z M601.5,321.4c2.4,0,4.7,0.9,6.3,2.6
	c1.7,1.9,2.5,4.3,2.4,6.8c0.1,2.5-0.8,4.9-2.4,6.8c-1.8,1.8-4.2,2.7-6.8,2.6c-2.5,0.2-5-0.8-6.8-2.6c-1.7-1.9-2.5-4.3-2.4-6.8
	c-0.1-2.5,0.8-4.9,2.4-6.8c1.8-1.8,4.2-2.7,6.8-2.6C601.2,321.4,601.4,321.4,601.5,321.4L601.5,321.4z M304.1,333.1h2.8v2.4
	c0,1.1-0.2,2.1-0.7,3c-0.5,0.9-1.1,1.6-1.9,2.1c-0.8,0.6-1.8,1-2.8,1.3c-1,0.3-2.1,0.5-3.2,0.5c-1.3,0-2.6-0.3-3.7-1
	c-1.1-0.6-1.8-1.8-1.8-3.1c-0.1-1.1,0.4-2.2,1.3-3c0.9-0.8,1.9-1.3,3-1.6c1.2-0.4,2.5-0.6,3.7-0.6h0
	C301.9,333.1,303,333.1,304.1,333.1L304.1,333.1z M532.5,335.8c-0.9,0-1.9,0.2-2.7,0.5c-0.9,0.3-1.6,0.8-2.2,1.5
	c-0.6,0.6-1.2,1.4-1.5,2.2c-0.3,0.9-0.5,1.8-0.5,2.8c0,0.9,0.2,1.9,0.5,2.7c0.3,0.8,0.9,1.6,1.5,2.2c0.6,0.7,1.4,1.2,2.2,1.5l0,0
	c0.9,0.4,1.8,0.6,2.7,0.6c1,0,1.9-0.2,2.8-0.5c0.8-0.3,1.6-0.8,2.3-1.5c0.6-0.6,1.1-1.4,1.5-2.2c0.4-0.9,0.5-1.8,0.5-2.7
	c0-1-0.2-1.9-0.5-2.8c-0.3-0.8-0.8-1.6-1.5-2.2c-0.7-0.6-1.4-1.1-2.3-1.5C534.4,335.9,533.5,335.8,532.5,335.8L532.5,335.8z
	 M532.5,335.8"/>
<path class="st1" d="M67.1,351.7v-46.5h17v46.5L67.1,351.7z M105.1,351.7H88.5v-63.1H110c10.1,0,17.9,2.6,23.5,7.8
	c5.5,5.2,8.3,12.6,8.3,22.5c0,10.5-2.9,18.6-8.7,24.3c-5.8,5.7-13.9,8.5-24.4,8.6H105.1z M105.5,337.7h3.5c4.3,0.4,8.5-1.3,11.4-4.5
	c2.7-4.1,4-8.9,3.6-13.8c0.3-4.6-0.9-9.1-3.4-12.9c-2.6-2.9-6.5-4.5-10.4-4.2h-4.7L105.5,337.7z M45.8,351.7v-29h17v29H45.8z
	 M45.8,351.7"/>
</svg>
